<svg xmlns="http://www.w3.org/2000/svg" width="800" height="310" viewBox="0 0 800 310">
<defs>
  <style>
    .r{animation:fall linear infinite;font-family:'Courier New',monospace;font-size:13px}
    .rc{fill:#00f5ff}.rm{fill:#ff2d78}
    .c1{animation-duration:4.2s;animation-delay:0s}
    .c2{animation-duration:3.6s;animation-delay:-2.1s}
    .c3{animation-duration:5.0s;animation-delay:-0.8s}
    .c4{animation-duration:3.9s;animation-delay:-3.5s}
    .c5{animation-duration:4.7s;animation-delay:-1.3s}
    .c6{animation-duration:3.3s;animation-delay:-4.0s}
    .c7{animation-duration:5.4s;animation-delay:-2.7s}
    .c8{animation-duration:4.1s;animation-delay:-0.6s}
    .c9{animation-duration:3.8s;animation-delay:-3.1s}
    .c10{animation-duration:5.1s;animation-delay:-1.9s}
    .c11{animation-duration:4.4s;animation-delay:-4.6s}
    .c12{animation-duration:3.4s;animation-delay:-0.4s}
    .c13{animation-duration:4.9s;animation-delay:-2.4s}
    .c14{animation-duration:3.7s;animation-delay:-3.8s}
    .c15{animation-duration:5.2s;animation-delay:-1.0s}
    .c16{animation-duration:4.0s;animation-delay:-4.2s}
    .c17{animation-duration:3.5s;animation-delay:-2.9s}
    .c18{animation-duration:4.6s;animation-delay:-0.7s}
    @keyframes fall{from{transform:translateY(-220px)}to{transform:translateY(340px)}}
    @keyframes blink{0%,100%{opacity:1}50%{opacity:0}}
    @keyframes breathe{0%,100%{opacity:.88}50%{opacity:1}}
    .blink{animation:blink 1s step-end infinite}
    .title{animation:breathe 3s ease-in-out infinite}

    /* Typing animation — 4 frases, cada uma dura 3s visível + 1s fade */
    .phrase{
      font-family:'Courier New',monospace;
      font-size:11px;
      fill:#00f5ff;
      letter-spacing:1.5px;
      text-anchor:middle;
      opacity:0;
    }
    .p1{animation:typing 12s ease-in-out infinite 0s}
    .p2{animation:typing 12s ease-in-out infinite 3s}
    .p3{animation:typing 12s ease-in-out infinite 6s}
    .p4{animation:typing 12s ease-in-out infinite 9s}
    @keyframes typing{
      0%{opacity:0}
      5%{opacity:.9}
      20%{opacity:.9}
      25%{opacity:0}
      100%{opacity:0}
    }

    /* cursor piscante ao lado do texto */
    .tcursor{
      fill:#00f5ff;
      opacity:0;
      animation:tcblink 12s ease-in-out infinite;
    }
    .tc1{animation-delay:0s}
    .tc2{animation-delay:3s}
    .tc3{animation-delay:6s}
    .tc4{animation-delay:9s}
    @keyframes tcblink{
      0%{opacity:0}
      5%{opacity:.8}
      10%{opacity:0}
      15%{opacity:.8}
      20%{opacity:0}
      25%{opacity:0}
      100%{opacity:0}
    }
  </style>
  <filter id="gw" x="-30%" y="-40%" width="160%" height="180%">
    <feGaussianBlur stdDeviation="5" in="SourceGraphic" result="b"/>
    <feMerge><feMergeNode in="b"/><feMergeNode in="SourceGraphic"/></feMerge>
  </filter>
  <linearGradient id="botg" x1="0" x2="1" y1="0" y2="0">
    <stop offset="0%"   stop-color="#050810"/>
    <stop offset="30%"  stop-color="#00f5ff"/>
    <stop offset="70%"  stop-color="#ff2d78"/>
    <stop offset="100%" stop-color="#050810"/>
  </linearGradient>
  <pattern id="grid" width="40" height="40" patternUnits="userSpaceOnUse">
    <path d="M40 0L0 0 0 40" fill="none" stroke="#00f5ff" stroke-width="0.6" opacity="0.05"/>
  </pattern>
  <pattern id="scan" width="800" height="4" patternUnits="userSpaceOnUse">
    <rect width="800" height="2" y="2" fill="#000" opacity="0.1"/>
  </pattern>
</defs>

<!-- Background -->
<rect width="800" height="310" fill="#050810"/>
<rect width="800" height="310" fill="url(#grid)"/>

<!-- MATRIX RAIN — left zone -->
<g class="r rc c1"><text x="18" y="0" opacity=".9">0</text><text x="18" y="18" opacity=".2">1</text><text x="18" y="36" opacity=".15">{</text><text x="18" y="54" opacity=".12">/</text><text x="18" y="72" opacity=".09">|</text><text x="18" y="90" opacity=".07">0</text><text x="18" y="108" opacity=".06">\</text><text x="18" y="126" opacity=".05">1</text><text x="18" y="144" opacity=".04">;</text><text x="18" y="162" opacity=".03">#</text></g>
<g class="r rm c2"><text x="56" y="0" opacity=".85">!</text><text x="56" y="18" fill="#00f5ff" opacity=".2">0</text><text x="56" y="36" fill="#00f5ff" opacity=".15">1</text><text x="56" y="54" fill="#00f5ff" opacity=".12">@</text><text x="56" y="72" fill="#00f5ff" opacity=".09">}</text><text x="56" y="90" fill="#00f5ff" opacity=".07">=</text><text x="56" y="108" fill="#00f5ff" opacity=".06">+</text><text x="56" y="126" fill="#00f5ff" opacity=".05">0</text><text x="56" y="144" fill="#00f5ff" opacity=".04">1</text><text x="56" y="162" fill="#00f5ff" opacity=".03">/</text></g>
<g class="r rc c3"><text x="95" y="0" opacity=".88">1</text><text x="95" y="18" opacity=".2">0</text><text x="95" y="36" opacity=".16">;</text><text x="95" y="54" opacity=".12">\</text><text x="95" y="72" opacity=".09">|</text><text x="95" y="90" opacity=".07">#</text><text x="95" y="108" opacity=".06">@</text><text x="95" y="126" opacity=".05">1</text><text x="95" y="144" opacity=".04">0</text><text x="95" y="162" opacity=".03">{</text></g>
<g class="r rc c4"><text x="138" y="0" opacity=".9">*</text><text x="138" y="18" opacity=".2">#</text><text x="138" y="36" opacity=".15">@</text><text x="138" y="54" opacity=".11">0</text><text x="138" y="72" opacity=".09">1</text><text x="138" y="90" opacity=".07">}</text><text x="138" y="108" opacity=".06">{\</text><text x="138" y="126" opacity=".05">|</text><text x="138" y="144" opacity=".04">!</text><text x="138" y="162" opacity=".03">?</text></g>
<g class="r rm c5"><text x="178" y="0" opacity=".88">?</text><text x="178" y="18" fill="#00f5ff" opacity=".2">0</text><text x="178" y="36" fill="#00f5ff" opacity=".15">1</text><text x="178" y="54" fill="#00f5ff" opacity=".11">|</text><text x="178" y="72" fill="#00f5ff" opacity=".09">/</text><text x="178" y="90" fill="#00f5ff" opacity=".07">\</text><text x="178" y="108" fill="#00f5ff" opacity=".06">@</text><text x="178" y="126" fill="#00f5ff" opacity=".05">#</text><text x="178" y="144" fill="#00f5ff" opacity=".04">{</text><text x="178" y="162" fill="#00f5ff" opacity=".03">}</text></g>
<g class="r rc c6"><text x="222" y="0" opacity=".9">0</text><text x="222" y="18" opacity=".2">1</text><text x="222" y="36" opacity=".16">?</text><text x="222" y="54" opacity=".12">!</text><text x="222" y="72" opacity=".09">;</text><text x="222" y="90" opacity=".07">:</text><text x="222" y="108" opacity=".06">@</text><text x="222" y="126" opacity=".05">#</text><text x="222" y="144" opacity=".04">1</text><text x="222" y="162" opacity=".03">0</text></g>
<g class="r rc c7"><text x="265" y="0" opacity=".88">#</text><text x="265" y="18" opacity=".2">@</text><text x="265" y="36" opacity=".15">0</text><text x="265" y="54" opacity=".11">1</text><text x="265" y="72" opacity=".09">/</text><text x="265" y="90" opacity=".07">\</text><text x="265" y="108" opacity=".06">|</text><text x="265" y="126" opacity=".05">{</text><text x="265" y="144" opacity=".04">}</text><text x="265" y="162" opacity=".03">=</text></g>

<!-- MATRIX RAIN — center (dim) -->
<g class="r rm c8"><text x="308" y="0" opacity=".4">1</text><text x="308" y="18" fill="#00f5ff" opacity=".1">0</text><text x="308" y="36" fill="#00f5ff" opacity=".08">{</text><text x="308" y="54" fill="#00f5ff" opacity=".06">}</text><text x="308" y="72" fill="#00f5ff" opacity=".05">|</text><text x="308" y="90" fill="#00f5ff" opacity=".04">/</text><text x="308" y="108" fill="#00f5ff" opacity=".03">\</text></g>
<g class="r rc c9"><text x="400" y="0" opacity=".4">0</text><text x="400" y="18" opacity=".09">1</text><text x="400" y="36" opacity=".07">;</text><text x="400" y="54" opacity=".05">#</text><text x="400" y="72" opacity=".04">@</text><text x="400" y="90" opacity=".03">{</text></g>
<g class="r rc c10"><text x="490" y="0" opacity=".42">1</text><text x="490" y="18" opacity=".09">0</text><text x="490" y="36" opacity=".07">=</text><text x="490" y="54" opacity=".05">+</text><text x="490" y="72" opacity=".04">?</text><text x="490" y="90" opacity=".03">!</text></g>

<!-- MATRIX RAIN — right zone -->
<g class="r rc c11"><text x="535" y="0" opacity=".88">#</text><text x="535" y="18" opacity=".2">@</text><text x="535" y="36" opacity=".15">0</text><text x="535" y="54" opacity=".11">1</text><text x="535" y="72" opacity=".09">\</text><text x="535" y="90" opacity=".07">|</text><text x="535" y="108" opacity=".06">/</text><text x="535" y="126" opacity=".05">{</text><text x="535" y="144" opacity=".04">}</text><text x="535" y="162" opacity=".03">=</text></g>
<g class="r rm c12"><text x="578" y="0" opacity=".9">!</text><text x="578" y="18" fill="#00f5ff" opacity=".2">0</text><text x="578" y="36" fill="#00f5ff" opacity=".16">1</text><text x="578" y="54" fill="#00f5ff" opacity=".12">?</text><text x="578" y="72" fill="#00f5ff" opacity=".09">!</text><text x="578" y="90" fill="#00f5ff" opacity=".07">;</text><text x="578" y="108" fill="#00f5ff" opacity=".06">:</text><text x="578" y="126" fill="#00f5ff" opacity=".05">@</text><text x="578" y="144" fill="#00f5ff" opacity=".04">#</text><text x="578" y="162" fill="#00f5ff" opacity=".03">1</text></g>
<g class="r rc c13"><text x="618" y="0" opacity=".88">1</text><text x="618" y="18" opacity=".2">0</text><text x="618" y="36" opacity=".15">|</text><text x="618" y="54" opacity=".11">/</text><text x="618" y="72" opacity=".09">\</text><text x="618" y="90" opacity=".07">@</text><text x="618" y="108" opacity=".06">#</text><text x="618" y="126" opacity=".05">0</text><text x="618" y="144" opacity=".04">1</text><text x="618" y="162" opacity=".03">{</text></g>
<g class="r rc c14"><text x="658" y="0" opacity=".9">*</text><text x="658" y="18" opacity=".2">#</text><text x="658" y="36" opacity=".16">@</text><text x="658" y="54" opacity=".12">0</text><text x="658" y="72" opacity=".09">1</text><text x="658" y="90" opacity=".07">}</text><text x="658" y="108" opacity=".06">{\</text><text x="658" y="126" opacity=".05">|</text><text x="658" y="144" opacity=".04">!</text><text x="658" y="162" opacity=".03">?</text></g>
<g class="r rm c15"><text x="698" y="0" opacity=".85">@</text><text x="698" y="18" fill="#00f5ff" opacity=".2">1</text><text x="698" y="36" fill="#00f5ff" opacity=".15">0</text><text x="698" y="54" fill="#00f5ff" opacity=".11">/</text><text x="698" y="72" fill="#00f5ff" opacity=".09">\</text><text x="698" y="90" fill="#00f5ff" opacity=".07">@</text><text x="698" y="108" fill="#00f5ff" opacity=".06">#</text><text x="698" y="126" fill="#00f5ff" opacity=".05">{</text><text x="698" y="144" fill="#00f5ff" opacity=".04">}</text><text x="698" y="162" fill="#00f5ff" opacity=".03">=</text></g>
<g class="r rc c16"><text x="738" y="0" opacity=".9">0</text><text x="738" y="18" opacity=".2">1</text><text x="738" y="36" opacity=".16">;</text><text x="738" y="54" opacity=".12">#</text><text x="738" y="72" opacity=".09">@</text><text x="738" y="90" opacity=".07">{</text><text x="738" y="108" opacity=".06">}</text><text x="738" y="126" opacity=".05">|</text><text x="738" y="144" opacity=".04">/</text><text x="738" y="162" opacity=".03">\</text></g>
<g class="r rc c17"><text x="758" y="0" opacity=".82">1</text><text x="758" y="18" opacity=".17">0</text><text x="758" y="36" opacity=".13">/</text><text x="758" y="54" opacity=".1">\</text><text x="758" y="72" opacity=".08">;</text><text x="758" y="90" opacity=".06">:</text><text x="758" y="108" opacity=".05">0</text></g>
<g class="r rm c18"><text x="780" y="0" opacity=".88">*</text><text x="780" y="18" fill="#00f5ff" opacity=".18">0</text><text x="780" y="36" fill="#00f5ff" opacity=".14">1</text><text x="780" y="54" fill="#00f5ff" opacity=".1">}</text><text x="780" y="72" fill="#00f5ff" opacity=".08">\</text><text x="780" y="90" fill="#00f5ff" opacity=".06">|</text><text x="780" y="108" fill="#00f5ff" opacity=".05">?</text></g>

<!-- SCANLINES -->
<rect width="800" height="310" fill="url(#scan)"/>

<!-- CENTER PANEL — altura aumentada para caber frases -->
<rect x="125" y="55" width="550" height="200" rx="2" fill="rgba(5,8,16,0.88)"/>

<!-- Corner brackets — top cyan -->
<path d="M125 80 L125 55 L150 55" stroke="#00f5ff" stroke-width="1.5" fill="none" opacity=".6"/>
<path d="M650 55 L675 55 L675 80" stroke="#00f5ff" stroke-width="1.5" fill="none" opacity=".6"/>
<!-- Corner brackets — bottom magenta -->
<path d="M125 230 L125 255 L150 255" stroke="#ff2d78" stroke-width="1.5" fill="none" opacity=".6"/>
<path d="M650 255 L675 255 L675 230" stroke="#ff2d78" stroke-width="1.5" fill="none" opacity=".6"/>
<!-- Partial border lines -->
<line x1="152" y1="55" x2="648" y2="55" stroke="#00f5ff" stroke-width="1" opacity=".2"/>
<line x1="152" y1="255" x2="648" y2="255" stroke="#ff2d78" stroke-width="1" opacity=".2"/>

<!-- Panel label -->
<text x="143" y="76" font-family="'Courier New',monospace" font-size="10" fill="#ff2d78" opacity=".75" letter-spacing="2">&gt; PORTFOLIO.SH</text>

<!-- TITLE -->
<text class="title" x="400" y="148" text-anchor="middle"
  font-family="Impact,'Arial Black',Arial,sans-serif"
  font-size="56" font-weight="900" fill="white" filter="url(#gw)">Igor Matheus</text>

<!-- SUBTITLE fixo -->
<text x="400" y="173" text-anchor="middle"
  font-family="'Courier New',Courier,monospace"
  font-size="12.5" fill="#00f5ff" letter-spacing="2.5" opacity=".88">Back-End Developer  ·  Cloud Engineer</text>

<!-- DIVISOR sutil -->
<line x1="250" y1="183" x2="550" y2="183" stroke="#00f5ff" stroke-width="0.5" opacity=".2"/>

<!-- FRASES ANIMADAS — aparecem em loop dentro do painel -->
<text class="phrase p1" x="400" y="202">Desenvolvedor Back-End</text>
<text class="phrase p2" x="400" y="202">Java · Spring Boot 3 · Python · AWS</text>
<text class="phrase p3" x="400" y="202">APIs RESTful · Docker · Terraform · CI/CD</text>
<text class="phrase p4" x="400" y="202">Resiliencia da logistica aplicada no codigo</text>

<!-- cursores piscantes sincronizados com cada frase -->
<rect class="tcursor tc1" x="510" y="192" width="6" height="10"/>
<rect class="tcursor tc2" x="556" y="192" width="6" height="10"/>
<rect class="tcursor tc3" x="566" y="192" width="6" height="10"/>
<rect class="tcursor tc4" x="548" y="192" width="6" height="10"/>

<!-- Terminal prompt + blinking cursor -->
<text x="143" y="248" font-family="'Courier New',monospace" font-size="10" fill="#00f5ff" opacity=".5">~$</text>
<rect class="blink" x="162" y="238" width="7" height="10" fill="#00f5ff" opacity=".7"/>

<!-- BOTTOM GRADIENT BAR -->
<rect x="0" y="304" width="800" height="4" fill="url(#botg)"/>
</svg>
